<?xml version="1.0" standalone="no"?>
<!DOCTYPE svg PUBLIC "-//W3C//DTD SVG 20010904//EN"
 "http://www.w3.org/TR/2001/REC-SVG-20010904/DTD/svg10.dtd">
<svg version="1.0" xmlns="http://www.w3.org/2000/svg"
 width="80.000000pt" height="80.000000pt" viewBox="0 0 80.000000 80.000000"
 preserveAspectRatio="xMidYMid meet">
<metadata>
Created by potrace 1.11, written by Peter Selinger 2001-2013
</metadata>
<g transform="translate(0.000000,80.000000) scale(0.100000,-0.100000)"
fill="#000000" stroke="none">
<path d="M145 625 c-32 -31 -31 -47 5 -135 17 -40 30 -78 30 -85 0 -7 -13 -45
-30 -85 -36 -87 -37 -110 -7 -138 45 -43 117 -15 117 46 0 15 -14 61 -31 103
-29 73 -30 78 -15 113 l15 37 80 -40 c76 -39 82 -44 156 -148 43 -59 84 -114
93 -121 41 -32 112 2 112 52 0 14 -14 61 -31 105 l-32 80 32 78 c37 93 38 113
8 141 -45 43 -117 15 -117 -45 0 -16 14 -62 30 -104 30 -72 30 -76 15 -112
l-15 -37 -79 40 c-76 38 -83 44 -157 147 -43 59 -85 113 -94 120 -24 20 -59
15 -85 -12z m85 -5 c24 -24 25 -39 5 -85 l-14 -35 -35 16 c-58 28 -68 85 -18
113 25 15 40 13 62 -9z m390 10 c39 -21 42 -44 13 -119 -16 -39 -31 -71 -34
-71 -7 0 -59 130 -59 147 0 10 46 53 57 53 2 0 13 -5 23 -10z m-306 -124 c25
-36 46 -67 46 -70 0 -4 -27 7 -60 24 -33 17 -60 34 -60 39 0 11 21 71 25 71 2
0 24 -29 49 -64z m-120 -9 c16 -11 17 -19 9 -43 l-10 -29 -17 39 c-9 21 -16
40 -16 42 0 8 17 3 34 -9z m52 -282 c-3 -8 -16 -21 -30 -30 -19 -13 -29 -14
-45 -5 -38 20 -43 44 -20 102 12 29 25 64 31 78 9 23 12 19 40 -53 16 -43 27
-84 24 -92z m304 96 c0 -5 -6 -23 -13 -40 l-13 -31 -47 65 c-26 36 -47 67 -47
70 0 3 27 -8 60 -25 33 -17 60 -34 60 -39z m65 33 c17 -42 18 -44 7 -44 -24 0
-43 27 -37 53 4 15 9 27 11 27 2 0 11 -16 19 -36z m33 -108 c4 -36 -14 -56
-49 -56 -31 0 -63 36 -55 61 3 8 10 26 16 42 l10 27 37 -23 c26 -17 39 -33 41
-51z"/>
</g>
</svg>
